<svg xmlns:xlink="http://www.w3.org/1999/xlink" xmlns="http://www.w3.org/2000/svg" width="395.99999999999994" height="182.6219550035082" viewBox="0 0 230 106.0683071990073" class="looka-1j8o68f"><defs id="SvgjsDefs1386"></defs><g id="SvgjsG1387" featurekey="v37d4h-0" transform="matrix(0.9216873082704123,0,0,0.9216873082704123,-12.813298232352087,4.6388829801260485)" fill="#C48C46"><g xmlns="http://www.w3.org/2000/svg" fill="#C48C46"><polygon points="33.23,46.006 27.303,44.73 21.736,52.455 25.083,61.374  " fill="#C48C46"></polygon><path d="M56.015,26.431L23.158,46.306l-9.256,21.501L64.595,78L79,28.649L56.015,26.431z M68.201,63.391L68.201,63.391   l-0.153,0.736l-3.799,13.018l-13.871-2.789L25.202,61.771l-3.761-8.634l-0.08,0.429l0.002-0.006l-0.014,0.062l-2.232,11.83   l27.749,8.197l1.606,0.324L15.342,67.31l6.1-14.173l0.295-0.682l2.534-5.89l3.032-1.835l11.874-7.181l-5.041,8.311l13.071,2.28   l3.942-13.338l-9.178,1.056l11.327-6.853l2.672-1.616l4.771,0.46l-7.443,1.156l-1.98,5.206l17.288,0.862l0.001,0.001l-17.52-0.377   l6.753,7.653l4.113,23.285l6.095-27.136l-5.786,27.645l1.928,10.721L68.201,63.391L68.201,63.391l0.529-27.923l0.063-0.277   l5.964-3.398l-11.91-3.739l15.299,1.476l-3.389,2.264L68.201,63.391L68.201,63.391z M68.617,35.097l0.005-0.004L68.617,35.097z" fill="#C48C46"></path><polygon points="64.19,76.866 61.862,66.016 61.485,65.393 46.781,48.27 46.92,48.586 46.916,48.585 46.781,48.27 46.376,48.483    33.23,46.006 35.464,54.215 35.365,54.267 35.507,54.372 35.569,54.604 35.716,54.528 55.886,69.563 25.424,61.637 50.469,74.3    64.249,77.145 55.964,69.584 55.924,69.574 46.933,48.621 46.936,48.62 56.145,69.476 64.249,77.145 64.188,76.868  " fill="#C48C46"></polygon><polygon points="46.92,48.586 46.781,48.27 46.916,48.585  " fill="#C48C46"></polygon><polygon points="46.936,48.62 46.933,48.621 55.924,69.574 55.964,69.584 64.249,77.145 56.145,69.476  " fill="#C48C46"></polygon><polygon points="64.19,76.866 64.19,76.866 64.188,76.868 64.249,77.145 68.048,64.127 68.201,63.392 64.19,76.866  " fill="#C48C46"></polygon><polygon points="68.201,63.391 68.201,63.391 68.201,63.392  " fill="#C48C46"></polygon><polygon points="64.19,76.866 64.19,76.866 64.19,76.866  " fill="#C48C46"></polygon><polygon points="18.822,65.59 21.35,53.621 21.361,53.565 15.912,66.964  " fill="#C48C46"></polygon><polygon points="21.363,53.56 21.361,53.565 21.35,53.621  " fill="#C48C46"></polygon></g></g><g id="SvgjsG1388" featurekey="UxBHKT-0" transform="matrix(5.450581304684662,0,0,5.450581304684662,84.90552434378407,-25.18168500387361)" fill="#C48C46"><path d="M4.43 7.369999999999999 q-0.49 0.47 -1.17 0.47 t-1.18 -0.48 t-0.5 -1.14 t0.5 -1.13 t1.18 -0.47 t1.17 0.47 t0.49 1.13 q0 0.68 -0.49 1.15 z M4.78 19.9 q0 2.28 -1.1 3.23 t-3.26 0.95 q-0.52 0 -1.32 -0.2 l0.16 -2.54 q0.56 0.2 1.12 0.2 q0.64 0 0.95 -0.24 t0.38 -0.57 t0.07 -0.83 l0 -10.88 l3 0 l0 10.88 z M6.4799999999999995 9.04 l3.18 0 l1.84 4.88 l2.66 -5.48 l2.7 5.5 l1.9 -4.9 l3.16 0 l-4.72 11.42 l-3.04 -5.84 l-3 5.84 z M23.619999999999997 4.880000000000001 l3 0 l0 15.12 l-3 0 l0 -15.12 z" fill="#C48C46"></path></g></svg>